<svg width="19" height="19" viewBox="0 0 19 19" fill="none" xmlns="http://www.w3.org/2000/svg">
<path d="M3.95833 15.8333V14.25H5.225L7.125 7.91667H11.875L13.775 14.25H15.0417V15.8333H3.95833ZM6.8875 14.25H12.1125L10.6875 9.5H8.3125L6.8875 14.25ZM8.70834 6.33333V2.375H10.2917V6.33333H8.70834ZM13.4188 8.29271L12.2906 7.16458L15.101 4.37396L16.2094 5.48229L13.4188 8.29271ZM14.25 11.875V10.2917H18.2083V11.875H14.25ZM5.58125 8.29271L2.79063 5.48229L3.89896 4.37396L6.70938 7.16458L5.58125 8.29271ZM0.791668 11.875V10.2917H4.75V11.875H0.791668Z" fill="#F8F8F8"/>
</svg>
