<svg width="12" height="12" viewBox="0 0 12 12" fill="none" xmlns="http://www.w3.org/2000/svg">
<path fill-rule="evenodd" clip-rule="evenodd" d="M3.67248 2.00846C5.21942 1.83719 6.78054 1.83719 8.32748 2.00846C9.18398 2.10446 9.87498 2.77896 9.97548 3.63846C10.1588 5.20746 10.1588 6.79246 9.97548 8.36146C9.87498 9.22096 9.18398 9.89546 8.32748 9.99146C6.78054 10.1627 5.21942 10.1627 3.67248 9.99146C2.81598 9.89546 2.12498 9.22096 2.02448 8.36146C1.84121 6.79263 1.84121 5.20779 2.02448 3.63896C2.07531 3.2214 2.26567 2.83324 2.56469 2.53738C2.86372 2.24153 3.25389 2.05533 3.67198 2.00896M5.99998 3.50346C6.09943 3.50346 6.19482 3.54297 6.26514 3.6133C6.33547 3.68362 6.37498 3.77901 6.37498 3.87846V5.62496H8.12148C8.22093 5.62496 8.31632 5.66447 8.38664 5.7348C8.45697 5.80512 8.49648 5.90051 8.49648 5.99996C8.49648 6.09942 8.45697 6.1948 8.38664 6.26513C8.31632 6.33545 8.22093 6.37496 8.12148 6.37496H6.37498V8.12146C6.37498 8.22092 6.33547 8.3163 6.26514 8.38663C6.19482 8.45695 6.09943 8.49646 5.99998 8.49646C5.90052 8.49646 5.80514 8.45695 5.73481 8.38663C5.66449 8.3163 5.62498 8.22092 5.62498 8.12146V6.37496H3.87848C3.77902 6.37496 3.68364 6.33545 3.61331 6.26513C3.54299 6.1948 3.50348 6.09942 3.50348 5.99996C3.50348 5.90051 3.54299 5.80512 3.61331 5.7348C3.68364 5.66447 3.77902 5.62496 3.87848 5.62496H5.62498V3.87846C5.62498 3.77901 5.66449 3.68362 5.73481 3.6133C5.80514 3.54297 5.90052 3.50346 5.99998 3.50346Z" fill="#4D64D8"/>
</svg>
