<svg width="333" height="135" viewBox="0 0 333 135" fill="none" xmlns="http://www.w3.org/2000/svg">
<path d="M32.5238 86.9684C24.7641 100.53 8.27472 97.4622 1 94.2334V134.5H332V1C326.18 1 317.451 8.26494 313.813 11.8974C303.144 22.5526 289.968 20.3731 284.714 17.9514C261.678 11.8974 257.232 27.638 251.978 36.1138C245.188 52.581 234.6 63.1556 230.154 66.3845C209.785 84.789 191.759 53.8726 185.293 36.1138C163.954 -4.56989 148.111 28.0416 142.857 49.4329C137.037 69.7747 127.499 82.9323 123.458 86.9684C108.908 107.31 85.8718 86.5649 76.1722 73.6494C64.5326 44.5896 50.3065 56.6979 44.6483 66.3845L32.5238 86.9684Z" fill="#1976FB" fill-opacity="0.03"/>
<path d="M1 94.2334C8.27472 97.4622 24.7641 100.53 32.5238 86.9684L44.6483 66.3845C50.3065 56.6979 64.5326 44.5896 76.1722 73.6494C85.8718 86.5649 108.908 107.31 123.458 86.9684C127.499 82.9323 137.037 69.7747 142.857 49.4329C148.111 28.0416 163.954 -4.56989 185.293 36.1138C191.759 53.8726 209.785 84.789 230.154 66.3845C234.6 63.1556 245.188 52.581 251.978 36.1138C257.232 27.638 261.678 11.8974 284.714 17.9514C289.968 20.3731 303.144 22.5526 313.813 11.8974C317.451 8.26494 326.18 1 332 1" stroke="#1976FB" stroke-width="2" stroke-linecap="round" stroke-linejoin="round"/>
</svg>
