<svg width="31" height="35" viewBox="0 0 31 35" fill="none" xmlns="http://www.w3.org/2000/svg">
<path d="M29.0383 12.5205H28.1976V8.46482L28.1902 8.38795C28.1914 8.225 28.1332 8.06718 28.0265 7.94406L21.2784 0.235584L21.2734 0.230625C21.2327 0.187285 21.1869 0.148988 21.137 0.116554L21.0924 0.0892753C21.0493 0.0658576 21.0041 0.0467529 20.9572 0.0322398L20.92 0.0198411C20.8686 0.00650897 20.8157 -0.000158222 20.7626 2.84991e-06H4.17508C3.41744 2.84991e-06 2.8024 0.616235 2.8024 1.37258V12.5193H1.96168C0.87792 12.5193 0 13.3972 0 14.4808V24.6828C0 25.7652 0.87916 26.6443 1.96168 26.6443H2.8024V33.6274C2.8024 34.3838 3.41744 35 4.17508 35H26.8249C27.5813 35 28.1976 34.3838 28.1976 33.6274V26.6443H29.0383C30.1208 26.6443 31 25.7664 31 24.6828V14.4808C31 13.3984 30.1221 12.5205 29.0383 12.5205ZM4.17508 1.37258H20.0756V8.39539C20.0756 8.7748 20.3831 9.08106 20.7626 9.08106H26.8262V12.5193H4.17508V1.37258ZM14.4448 20.1794C12.7782 19.5843 11.6783 18.6618 11.6783 17.2049C11.6783 15.4951 13.1217 14.2019 15.4715 14.2019C16.6172 14.2019 17.4344 14.425 18.0296 14.7065L17.5237 16.5205C16.8752 16.205 16.1629 16.0425 15.4417 16.0456C14.4596 16.0456 13.9835 16.5056 13.9835 17.0115C13.9835 17.6513 14.5328 17.9327 15.8422 18.4237C17.613 19.0784 18.4301 19.9996 18.4301 21.4131C18.4301 23.0944 17.1517 24.5216 14.4001 24.5216C13.2544 24.5216 12.1247 24.2091 11.5593 23.8967L12.0206 22.038C12.799 22.4361 13.6586 22.6499 14.5328 22.663C15.5744 22.663 16.125 22.2302 16.125 21.5768C16.125 20.9519 15.65 20.596 14.4448 20.1794ZM2.63252 19.495C2.63252 16.089 5.0716 14.2006 8.10464 14.2006C9.28016 14.2006 10.1717 14.4374 10.5735 14.6321L10.0973 16.4312C9.49499 16.1783 8.84716 16.0517 8.19392 16.0592C6.40956 16.0592 5.01208 17.1441 5.01208 19.3747C5.01208 21.3673 6.20124 22.632 8.2088 22.632C8.90816 22.632 9.65216 22.4993 10.1122 22.3046L10.4408 24.0888C10.039 24.281 9.08672 24.5203 7.88268 24.5203C4.41688 24.5216 2.63252 22.3505 2.63252 19.495ZM26.8249 33.2579H4.17508V26.6455H26.8249V33.2579ZM24.9922 24.3728H22.3448L19.1332 14.3494H21.6169L22.8358 18.5886C23.1768 19.7926 23.4893 20.9234 23.7274 22.172H23.772C24.0258 20.9805 24.3282 19.8 24.6785 18.6333L25.9582 14.3506H28.3662L24.9922 24.3728Z" fill="black"/>
</svg>
