<svg width="17" height="18" viewBox="0 0 17 18" fill="none" xmlns="http://www.w3.org/2000/svg">
<path d="M12.6982 6.53982L15.2173 9.0589C15.6261 9.46223 15.951 9.94243 16.1734 10.4719C16.3959 11.0013 16.5113 11.5695 16.5133 12.1437C16.5152 12.718 16.4035 13.2869 16.1846 13.8179C15.9658 14.3488 15.644 14.8311 15.238 15.2372C14.8319 15.6432 14.3496 15.965 13.8187 16.1838C13.2877 16.4027 12.7188 16.5144 12.1445 16.5125C11.5703 16.5105 11.0021 16.395 10.4727 16.1726C9.94324 15.9502 9.46304 15.6253 9.05971 15.2165L8.22054 14.3773C8.10707 14.2678 8.01655 14.1368 7.95424 13.992C7.89194 13.8471 7.85911 13.6913 7.85767 13.5337C7.85622 13.376 7.88619 13.2196 7.94583 13.0736C8.00547 12.9277 8.09359 12.795 8.20503 12.6835C8.31648 12.5719 8.44902 12.4837 8.59493 12.4239C8.74084 12.3641 8.8972 12.334 9.05487 12.3353C9.21255 12.3366 9.36839 12.3693 9.51329 12.4315C9.6582 12.4936 9.78928 12.584 9.89888 12.6974L10.7396 13.5374C11.1114 13.9058 11.614 14.1119 12.1374 14.1107C12.6608 14.1095 13.1624 13.901 13.5324 13.5309C13.9025 13.1607 14.1109 12.659 14.1119 12.1356C14.113 11.6122 13.9067 11.1097 13.5382 10.738L11.0191 8.21895C10.7468 7.94655 10.401 7.75952 10.024 7.68077C9.64696 7.60202 9.25517 7.63498 8.89663 7.77561C8.7689 7.82628 8.6491 7.878 8.53721 7.93078L8.16988 8.10257C7.67904 8.32424 7.30142 8.41924 6.82088 7.93949C6.13054 7.24915 6.30946 6.61186 7.151 6.03157C7.9893 5.45473 9.00317 5.18972 10.0165 5.28257C11.0299 5.37541 11.9787 5.82025 12.6982 6.53982ZM7.94029 1.7819L8.77946 2.62107C8.99588 2.84493 9.11572 3.14484 9.11316 3.4562C9.1106 3.76756 8.98585 4.06546 8.76579 4.28574C8.54572 4.50602 8.24793 4.63105 7.93657 4.6339C7.62522 4.63675 7.32519 4.5172 7.10113 4.30099L6.26117 3.46182C6.07865 3.27274 5.8603 3.1219 5.61887 3.01811C5.37743 2.91431 5.11774 2.85964 4.85495 2.85728C4.59215 2.85493 4.33153 2.90493 4.08827 3.00437C3.84501 3.10382 3.62399 3.25072 3.4381 3.43649C3.25222 3.62227 3.1052 3.8432 3.00562 4.08641C2.90604 4.32961 2.85589 4.59021 2.85809 4.85301C2.8603 5.1158 2.91483 5.37552 3.01848 5.61702C3.12214 5.85851 3.27286 6.07694 3.46183 6.25957L5.98092 8.77865C6.25319 9.05105 6.59903 9.23808 6.97604 9.31683C7.35304 9.39558 7.74483 9.36262 8.10338 9.22199C8.2311 9.17132 8.3509 9.1196 8.46279 9.06682L8.83013 8.89503C9.32096 8.67336 9.69938 8.57836 10.1791 9.05811C10.8695 9.74844 10.6905 10.3857 9.849 10.966C9.0107 11.5429 7.99684 11.8079 6.98349 11.715C5.97014 11.6222 5.02131 11.1774 4.30179 10.4578L1.78271 7.9387C1.37394 7.53537 1.04899 7.05516 0.826571 6.52574C0.604151 5.99631 0.488654 5.42811 0.48673 4.85386C0.484806 4.27961 0.596494 3.71065 0.815362 3.17975C1.03423 2.64884 1.35595 2.16647 1.76201 1.76041C2.16807 1.35436 2.65044 1.03263 3.18135 0.813763C3.71225 0.594895 4.28121 0.483208 4.85546 0.485132C5.42971 0.487056 5.9979 0.602553 6.52733 0.824973C7.05676 1.04739 7.53697 1.37313 7.94029 1.7819Z" fill="#F8F8F8"/>
</svg>
