<svg width="195" height="116" viewBox="0 0 195 116" fill="none" xmlns="http://www.w3.org/2000/svg">
<path d="M69.0544 87.4302C67.0184 87.4302 65.2191 87.0798 63.6566 86.3791C62.1036 85.6783 60.8867 84.7124 60.0061 83.4813C59.1254 82.2503 58.6898 80.8488 58.6992 79.2768C58.6898 78.0457 58.9407 76.9141 59.4521 75.8819C59.9729 74.8402 60.6784 73.9738 61.5686 73.2825C62.4587 72.5817 63.453 72.1366 64.5515 71.9472V71.7768C63.1027 71.4264 61.9426 70.6499 61.0714 69.4472C60.2002 68.2446 59.7693 66.862 59.7788 65.2995C59.7693 63.8128 60.1623 62.487 60.9578 61.3222C61.7627 60.148 62.8659 59.2247 64.2674 58.5524C65.6689 57.88 67.2646 57.5438 69.0544 57.5438C70.8252 57.5438 72.4066 57.8847 73.7987 58.5666C75.2002 59.2389 76.3034 60.1622 77.1083 61.3364C77.9133 62.5012 78.3205 63.8222 78.3299 65.2995C78.3205 66.862 77.8754 68.2446 76.9947 69.4472C76.114 70.6499 74.9682 71.4264 73.5572 71.7768V71.9472C74.6462 72.1366 75.6263 72.5817 76.4975 73.2825C77.3782 73.9738 78.079 74.8402 78.5998 75.8819C79.1301 76.9141 79.4 78.0457 79.4095 79.2768C79.4 80.8488 78.9549 82.2503 78.0742 83.4813C77.1936 84.7124 75.972 85.6783 74.4095 86.3791C72.8564 87.0798 71.0714 87.4302 69.0544 87.4302ZM69.0544 83.8364C70.257 83.8364 71.2987 83.6376 72.1794 83.2399C73.06 82.8327 73.7419 82.2692 74.2248 81.5495C74.7078 80.8203 74.954 79.9681 74.9634 78.9927C74.954 77.9794 74.6888 77.0846 74.168 76.308C73.6566 75.5315 72.9606 74.9207 72.0799 74.4757C71.1992 74.0306 70.1907 73.808 69.0544 73.808C67.9085 73.808 66.8905 74.0306 66.0004 74.4757C65.1102 74.9207 64.4095 75.5315 63.8981 76.308C63.3867 77.0846 63.1358 77.9794 63.1453 78.9927C63.1358 79.9681 63.3678 80.8203 63.8413 81.5495C64.3242 82.2692 65.0108 82.8327 65.9009 83.2399C66.7911 83.6376 67.8422 83.8364 69.0544 83.8364ZM69.0544 70.2995C70.0203 70.2995 70.8773 70.1054 71.6254 69.7171C72.3735 69.3289 72.9606 68.7891 73.3867 68.0978C73.8223 67.4065 74.0449 66.5969 74.0544 65.6688C74.0449 64.7597 73.8271 63.9643 73.4009 63.2825C72.9843 62.6007 72.4019 62.0751 71.6538 61.7058C70.9057 61.327 70.0392 61.1376 69.0544 61.1376C68.0506 61.1376 67.1699 61.327 66.4123 61.7058C65.6642 62.0751 65.0818 62.6007 64.6652 63.2825C64.2485 63.9643 64.0449 64.7597 64.0544 65.6688C64.0449 66.5969 64.2532 67.4065 64.6794 68.0978C65.1055 68.7891 65.6926 69.3289 66.4407 69.7171C67.1983 70.1054 68.0695 70.2995 69.0544 70.2995ZM85.4784 87.0325L98.1772 61.9188V61.7058H83.4897V57.9416H102.723V61.8336L90.0664 87.0325H85.4784ZM122.847 81.5779V80.0438C122.847 78.9453 123.074 77.9416 123.529 77.0325C123.993 76.1139 124.665 75.38 125.546 74.8308C126.436 74.2721 127.511 73.9927 128.77 73.9927C130.058 73.9927 131.138 74.2673 132.009 74.8166C132.88 75.3658 133.538 76.0997 133.983 77.0183C134.438 77.9368 134.665 78.9453 134.665 80.0438V81.5779C134.665 82.6764 134.438 83.6849 133.983 84.6035C133.529 85.5126 132.861 86.2465 131.98 86.8052C131.109 87.3544 130.039 87.6291 128.77 87.6291C127.492 87.6291 126.412 87.3544 125.532 86.8052C124.651 86.2465 123.983 85.5126 123.529 84.6035C123.074 83.6849 122.847 82.6764 122.847 81.5779ZM126.157 80.0438V81.5779C126.157 82.3923 126.351 83.131 126.739 83.7938C127.127 84.4567 127.804 84.7882 128.77 84.7882C129.727 84.7882 130.394 84.4567 130.773 83.7938C131.152 83.131 131.341 82.3923 131.341 81.5779V80.0438C131.341 79.2294 131.157 78.4908 130.787 77.8279C130.427 77.165 129.755 76.8336 128.77 76.8336C127.823 76.8336 127.151 77.165 126.753 77.8279C126.355 78.4908 126.157 79.2294 126.157 80.0438ZM108.216 64.9302V63.3961C108.216 62.2976 108.444 61.2891 108.898 60.3705C109.362 59.452 110.034 58.7181 110.915 58.1688C111.805 57.6196 112.88 57.345 114.14 57.345C115.427 57.345 116.507 57.6196 117.378 58.1688C118.249 58.7181 118.908 59.452 119.353 60.3705C119.798 61.2891 120.02 62.2976 120.02 63.3961V64.9302C120.02 66.0287 119.793 67.0372 119.338 67.9558C118.893 68.8649 118.23 69.5988 117.35 70.1575C116.479 70.7067 115.409 70.9813 114.14 70.9813C112.852 70.9813 111.767 70.7067 110.887 70.1575C110.016 69.5988 109.353 68.8649 108.898 67.9558C108.444 67.0372 108.216 66.0287 108.216 64.9302ZM111.54 63.3961V64.9302C111.54 65.7446 111.73 66.4832 112.108 67.1461C112.497 67.809 113.174 68.1404 114.14 68.1404C115.087 68.1404 115.749 67.809 116.128 67.1461C116.516 66.4832 116.711 65.7446 116.711 64.9302V63.3961C116.711 62.5817 116.526 61.8431 116.157 61.1802C115.787 60.5173 115.115 60.1859 114.14 60.1859C113.193 60.1859 112.52 60.5173 112.123 61.1802C111.734 61.8431 111.54 62.5817 111.54 63.3961ZM109.566 87.0325L129.566 57.9416H132.961L112.961 87.0325H109.566Z" fill="black"/>
<path d="M61.7277 103.032C61.6027 102.65 61.4379 102.307 61.2333 102.004C61.0326 101.697 60.792 101.436 60.5117 101.22C60.2352 101.004 59.9208 100.839 59.5686 100.726C59.2163 100.612 58.8299 100.555 58.4095 100.555C57.7201 100.555 57.0932 100.733 56.5288 101.089C55.9644 101.445 55.5155 101.97 55.1822 102.663C54.8489 103.356 54.6822 104.207 54.6822 105.214C54.6822 106.222 54.8508 107.072 55.1879 107.765C55.525 108.459 55.9814 108.983 56.5572 109.339C57.133 109.695 57.7807 109.873 58.5004 109.873C59.167 109.873 59.7542 109.731 60.2617 109.447C60.7731 109.159 61.1708 108.754 61.4549 108.231C61.7428 107.705 61.8867 107.086 61.8867 106.373L62.3186 106.464H58.8186V105.214H63.2504V106.464C63.2504 107.423 63.0458 108.256 62.6367 108.964C62.2314 109.673 61.6708 110.222 60.9549 110.612C60.2428 110.998 59.4246 111.192 58.5004 111.192C57.4701 111.192 56.5648 110.949 55.7845 110.464C55.008 109.979 54.4019 109.29 53.9663 108.396C53.5345 107.502 53.3186 106.442 53.3186 105.214C53.3186 104.294 53.4417 103.466 53.6879 102.731C53.9379 101.993 54.2902 101.364 54.7447 100.845C55.1992 100.326 55.7371 99.9283 56.3583 99.6518C56.9795 99.3753 57.6633 99.237 58.4095 99.237C59.0231 99.237 59.5951 99.3298 60.1254 99.5154C60.6595 99.6972 61.1348 99.9567 61.5515 100.294C61.972 100.627 62.3223 101.027 62.6027 101.493C62.883 101.955 63.0761 102.468 63.1822 103.032H61.7277ZM69.141 111.214C68.3001 111.214 67.5747 111.029 66.9649 110.657C66.3588 110.282 65.891 109.76 65.5615 109.089C65.2357 108.415 65.0728 107.631 65.0728 106.737C65.0728 105.843 65.2357 105.055 65.5615 104.373C65.891 103.688 66.3493 103.154 66.9365 102.771C67.5274 102.385 68.2168 102.192 69.0046 102.192C69.4592 102.192 69.908 102.267 70.3512 102.419C70.7944 102.57 71.1978 102.817 71.5615 103.157C71.9251 103.495 72.2149 103.942 72.4308 104.498C72.6467 105.055 72.7546 105.741 72.7546 106.555V107.123H66.0274V105.964H71.391C71.391 105.472 71.2925 105.032 71.0955 104.646C70.9024 104.26 70.6259 103.955 70.266 103.731C69.9099 103.508 69.4895 103.396 69.0046 103.396C68.4705 103.396 68.0084 103.529 67.6183 103.794C67.2319 104.055 66.9346 104.396 66.7262 104.817C66.5179 105.237 66.4137 105.688 66.4137 106.169V106.942C66.4137 107.601 66.5274 108.159 66.7546 108.618C66.9857 109.072 67.3058 109.419 67.7149 109.657C68.124 109.892 68.5993 110.01 69.141 110.01C69.4933 110.01 69.8115 109.961 70.0955 109.862C70.3834 109.76 70.6315 109.608 70.8399 109.407C71.0482 109.203 71.2092 108.949 71.3228 108.646L72.6183 109.01C72.4819 109.449 72.2527 109.836 71.9308 110.169C71.6088 110.498 71.2111 110.756 70.7376 110.942C70.2641 111.123 69.7319 111.214 69.141 111.214ZM76.1353 105.782V111.032H74.7944V102.305H76.0899V103.669H76.2035C76.408 103.226 76.7187 102.87 77.1353 102.601C77.552 102.328 78.0899 102.192 78.749 102.192C79.3399 102.192 79.8569 102.313 80.3001 102.555C80.7433 102.794 81.088 103.157 81.3342 103.646C81.5804 104.131 81.7035 104.745 81.7035 105.487V111.032H80.3626V105.578C80.3626 104.892 80.1846 104.358 79.8285 103.976C79.4724 103.589 78.9838 103.396 78.3626 103.396C77.9346 103.396 77.552 103.489 77.2149 103.675C76.8815 103.86 76.6183 104.131 76.4251 104.487C76.2319 104.843 76.1353 105.275 76.1353 105.782ZM86.722 111.237C86.1689 111.237 85.667 111.133 85.2163 110.925C84.7655 110.712 84.4076 110.407 84.1424 110.01C83.8773 109.608 83.7447 109.123 83.7447 108.555C83.7447 108.055 83.8432 107.65 84.0402 107.339C84.2371 107.025 84.5004 106.779 84.8299 106.601C85.1595 106.423 85.5231 106.29 85.9208 106.203C86.3223 106.112 86.7258 106.04 87.1311 105.987C87.6614 105.919 88.0913 105.868 88.4208 105.834C88.7542 105.796 88.9966 105.733 89.1481 105.646C89.3034 105.559 89.3811 105.407 89.3811 105.192V105.146C89.3811 104.586 89.2277 104.15 88.9208 103.839C88.6178 103.529 88.1576 103.373 87.5402 103.373C86.9 103.373 86.3981 103.514 86.0345 103.794C85.6708 104.074 85.4152 104.373 85.2674 104.692L83.9947 104.237C84.222 103.707 84.525 103.294 84.9038 102.998C85.2864 102.699 85.703 102.491 86.1538 102.373C86.6083 102.252 87.0553 102.192 87.4947 102.192C87.775 102.192 88.097 102.226 88.4606 102.294C88.828 102.358 89.1822 102.493 89.5231 102.697C89.8678 102.902 90.1538 103.211 90.3811 103.623C90.6083 104.036 90.722 104.589 90.722 105.282V111.032H89.3811V109.851H89.3129C89.222 110.04 89.0705 110.243 88.8583 110.459C88.6462 110.675 88.364 110.858 88.0117 111.01C87.6595 111.161 87.2295 111.237 86.722 111.237ZM86.9265 110.032C87.4568 110.032 87.9038 109.928 88.2674 109.72C88.6348 109.512 88.9114 109.243 89.097 108.913C89.2864 108.584 89.3811 108.237 89.3811 107.873V106.646C89.3242 106.714 89.1992 106.777 89.0061 106.834C88.8167 106.887 88.597 106.934 88.347 106.976C88.1008 107.014 87.8602 107.048 87.6254 107.078C87.3943 107.104 87.2068 107.127 87.0629 107.146C86.7144 107.192 86.3886 107.265 86.0856 107.368C85.7864 107.466 85.5439 107.616 85.3583 107.817C85.1765 108.014 85.0856 108.282 85.0856 108.623C85.0856 109.089 85.258 109.442 85.6027 109.68C85.9511 109.915 86.3924 110.032 86.9265 110.032ZM98.6694 107.464V102.305H100.01V111.032H98.6694V109.555H98.5785C98.374 109.998 98.0558 110.375 97.624 110.686C97.1921 110.993 96.6467 111.146 95.9876 111.146C95.4421 111.146 94.9573 111.027 94.533 110.788C94.1088 110.546 93.7755 110.182 93.533 109.697C93.2906 109.209 93.1694 108.593 93.1694 107.851V102.305H94.5103V107.76C94.5103 108.396 94.6884 108.904 95.0444 109.282C95.4043 109.661 95.8626 109.851 96.4194 109.851C96.7527 109.851 97.0918 109.765 97.4365 109.595C97.7849 109.425 98.0766 109.163 98.3115 108.811C98.5501 108.459 98.6694 108.01 98.6694 107.464ZM102.466 111.032V102.305H103.807V111.032H102.466ZM103.148 100.851C102.887 100.851 102.661 100.762 102.472 100.584C102.286 100.406 102.194 100.192 102.194 99.9416C102.194 99.6916 102.286 99.4775 102.472 99.2995C102.661 99.1215 102.887 99.0325 103.148 99.0325C103.409 99.0325 103.633 99.1215 103.819 99.2995C104.008 99.4775 104.103 99.6916 104.103 99.9416C104.103 100.192 104.008 100.406 103.819 100.584C103.633 100.762 103.409 100.851 103.148 100.851ZM109.786 114.487C109.138 114.487 108.581 114.404 108.115 114.237C107.65 114.074 107.261 113.858 106.951 113.589C106.644 113.324 106.4 113.04 106.218 112.737L107.286 111.987C107.407 112.146 107.561 112.328 107.746 112.532C107.932 112.741 108.186 112.921 108.507 113.072C108.833 113.228 109.259 113.305 109.786 113.305C110.49 113.305 111.072 113.135 111.53 112.794C111.989 112.453 112.218 111.919 112.218 111.192V109.419H112.104C112.006 109.578 111.865 109.775 111.684 110.01C111.506 110.241 111.248 110.447 110.911 110.629C110.578 110.807 110.127 110.896 109.559 110.896C108.854 110.896 108.221 110.729 107.661 110.396C107.104 110.063 106.663 109.578 106.337 108.942C106.015 108.305 105.854 107.532 105.854 106.623C105.854 105.729 106.011 104.951 106.326 104.288C106.64 103.621 107.078 103.106 107.638 102.743C108.199 102.375 108.846 102.192 109.581 102.192C110.15 102.192 110.6 102.286 110.934 102.476C111.271 102.661 111.528 102.873 111.706 103.112C111.888 103.347 112.028 103.54 112.127 103.692H112.263V102.305H113.559V111.282C113.559 112.032 113.388 112.642 113.047 113.112C112.71 113.586 112.256 113.932 111.684 114.152C111.115 114.375 110.483 114.487 109.786 114.487ZM109.74 109.692C110.278 109.692 110.733 109.568 111.104 109.322C111.475 109.076 111.757 108.722 111.951 108.26C112.144 107.798 112.24 107.245 112.24 106.601C112.24 105.972 112.146 105.417 111.956 104.936C111.767 104.455 111.487 104.078 111.115 103.805C110.744 103.532 110.286 103.396 109.74 103.396C109.172 103.396 108.699 103.54 108.32 103.828C107.945 104.116 107.663 104.502 107.473 104.987C107.288 105.472 107.195 106.01 107.195 106.601C107.195 107.207 107.29 107.743 107.479 108.209C107.672 108.671 107.956 109.034 108.331 109.3C108.71 109.561 109.18 109.692 109.74 109.692ZM117.263 107.851L117.24 106.192H117.513L121.331 102.305H122.99L118.922 106.419H118.809L117.263 107.851ZM116.013 111.032V99.3961H117.354V111.032H116.013ZM121.559 111.032L118.15 106.714L119.104 105.782L123.263 111.032H121.559ZM128.016 111.214C127.175 111.214 126.45 111.029 125.84 110.657C125.234 110.282 124.766 109.76 124.436 109.089C124.111 108.415 123.948 107.631 123.948 106.737C123.948 105.843 124.111 105.055 124.436 104.373C124.766 103.688 125.224 103.154 125.811 102.771C126.402 102.385 127.092 102.192 127.88 102.192C128.334 102.192 128.783 102.267 129.226 102.419C129.669 102.57 130.073 102.817 130.436 103.157C130.8 103.495 131.09 103.942 131.306 104.498C131.522 105.055 131.63 105.741 131.63 106.555V107.123H124.902V105.964H130.266C130.266 105.472 130.168 105.032 129.971 104.646C129.777 104.26 129.501 103.955 129.141 103.731C128.785 103.508 128.364 103.396 127.88 103.396C127.346 103.396 126.883 103.529 126.493 103.794C126.107 104.055 125.81 104.396 125.601 104.817C125.393 105.237 125.289 105.688 125.289 106.169V106.942C125.289 107.601 125.402 108.159 125.63 108.618C125.861 109.072 126.181 109.419 126.59 109.657C126.999 109.892 127.474 110.01 128.016 110.01C128.368 110.01 128.686 109.961 128.971 109.862C129.258 109.76 129.507 109.608 129.715 109.407C129.923 109.203 130.084 108.949 130.198 108.646L131.493 109.01C131.357 109.449 131.128 109.836 130.806 110.169C130.484 110.498 130.086 110.756 129.613 110.942C129.139 111.123 128.607 111.214 128.016 111.214ZM133.669 111.032V102.305H135.01V111.032H133.669ZM134.351 100.851C134.09 100.851 133.864 100.762 133.675 100.584C133.489 100.406 133.397 100.192 133.397 99.9416C133.397 99.6916 133.489 99.4775 133.675 99.2995C133.864 99.1215 134.09 99.0325 134.351 99.0325C134.613 99.0325 134.836 99.1215 135.022 99.2995C135.211 99.4775 135.306 99.6916 135.306 99.9416C135.306 100.192 135.211 100.406 135.022 100.584C134.836 100.762 134.613 100.851 134.351 100.851ZM141.262 102.305V103.442H136.739V102.305H141.262ZM138.057 100.214H139.398V108.532C139.398 108.911 139.453 109.195 139.563 109.385C139.677 109.57 139.82 109.695 139.995 109.76C140.173 109.82 140.36 109.851 140.557 109.851C140.705 109.851 140.826 109.843 140.921 109.828C141.016 109.809 141.091 109.794 141.148 109.782L141.421 110.987C141.33 111.021 141.203 111.055 141.04 111.089C140.877 111.127 140.671 111.146 140.421 111.146C140.042 111.146 139.671 111.065 139.307 110.902C138.947 110.739 138.648 110.491 138.409 110.157C138.175 109.824 138.057 109.404 138.057 108.896V100.214Z" fill="black"/>
<path d="M147.965 46.0076L164.723 28.4115C190.866 51.2026 195.167 84.8306 194.05 98.7958H171.426C171.426 71.9827 155.785 50.1971 147.965 46.0076Z" fill="#D4E3FF"/>
<path d="M1.33068 99.6339H23.9542C26.4679 61.9279 43.0313 39.3994 73.3908 27.5738C101.675 16.5565 137.91 32.6009 147.127 45.1697L163.885 27.5738C131.206 -5.10477 75.2278 -10.4766 36.5228 20.8706C10.3425 42.074 -2.02097 74.4965 1.33068 99.6339Z" fill="#007BFF"/>
</svg>
