<svg width="195" height="53" viewBox="0 0 195 53" fill="none" xmlns="http://www.w3.org/2000/svg">
<path d="M1 50.0647C5.24176 51.7639 14.8564 53.3781 19.381 46.2415L26.4505 35.409C29.7497 30.3114 38.0447 23.9393 44.8315 39.2322C50.4872 46.0291 63.9194 56.9465 72.4029 46.2415C74.7595 44.1174 80.3209 37.1931 83.7143 26.4881C86.7778 15.2309 96.0154 -1.93117 108.458 19.4789C112.228 28.8246 122.738 45.0945 134.615 35.409C137.208 33.7098 143.382 28.1449 147.341 19.4789C150.404 15.0185 152.996 6.73484 166.429 9.92082C169.492 11.1952 177.174 12.3422 183.396 6.73485C185.516 4.82324 190.607 1.00002 194 1.00002" stroke="#1976FB" stroke-width="2" stroke-linecap="round" stroke-linejoin="round"/>
</svg>
