<svg width="19" height="19" viewBox="0 0 19 19" fill="none" xmlns="http://www.w3.org/2000/svg">
<path d="M12.6667 16.625V15.0417C12.6667 14.2018 12.333 13.3963 11.7392 12.8025C11.1453 12.2086 10.3399 11.875 9.5 11.875H4.75C3.91015 11.875 3.10469 12.2086 2.51083 12.8025C1.91696 13.3963 1.58333 14.2018 1.58333 15.0417V16.625M12.6667 2.47632C13.3457 2.65236 13.9471 3.0489 14.3764 3.6037C14.8057 4.1585 15.0387 4.84015 15.0387 5.54165C15.0387 6.24316 14.8057 6.9248 14.3764 7.4796C13.9471 8.0344 13.3457 8.43094 12.6667 8.60698M17.4167 16.625V15.0417C17.4161 14.34 17.1826 13.6584 16.7527 13.1039C16.3229 12.5494 15.721 12.1533 15.0417 11.9779" stroke="#F8F8F8" stroke-width="1.58333" stroke-linecap="round" stroke-linejoin="round"/>
<path d="M7.125 8.70833C8.8739 8.70833 10.2917 7.29057 10.2917 5.54167C10.2917 3.79276 8.8739 2.375 7.125 2.375C5.3761 2.375 3.95833 3.79276 3.95833 5.54167C3.95833 7.29057 5.3761 8.70833 7.125 8.70833Z" stroke="#F8F8F8" stroke-width="1.58333" stroke-linecap="round" stroke-linejoin="round"/>
</svg>
