<svg width="19" height="19" viewBox="0 0 19 19" fill="none" xmlns="http://www.w3.org/2000/svg">
<path d="M9.4999 16.6251C8.94574 16.6251 8.47733 16.4338 8.09469 16.0511C7.71206 15.6685 7.52074 15.2001 7.52074 14.6459C7.52074 14.0917 7.71206 13.6233 8.09469 13.2407C8.47733 12.8581 8.94574 12.6667 9.4999 12.6667C10.0541 12.6667 10.5225 12.8581 10.9051 13.2407C11.2877 13.6233 11.4791 14.0917 11.4791 14.6459C11.4791 15.2001 11.2877 15.6685 10.9051 16.0511C10.5225 16.4338 10.0541 16.6251 9.4999 16.6251ZM9.4999 7.91675C10.4895 7.91675 11.4297 8.07508 12.3206 8.39175C13.2115 8.70842 14.0195 9.14383 14.7447 9.698C15.0086 9.89592 15.144 10.1566 15.1508 10.4802C15.1577 10.8037 15.0421 11.0839 14.8041 11.3209C14.5798 11.5452 14.3027 11.6608 13.9728 11.6677C13.643 11.6745 13.3461 11.5853 13.0822 11.4001C12.5808 11.057 12.0266 10.7865 11.4197 10.5886C10.8127 10.3907 10.1728 10.2917 9.4999 10.2917C8.82699 10.2917 8.18706 10.3907 7.58011 10.5886C6.97317 10.7865 6.419 11.057 5.91761 11.4001C5.65372 11.5848 5.35685 11.6706 5.02699 11.6574C4.69712 11.6442 4.42004 11.5254 4.19574 11.3011C3.97143 11.0636 3.85928 10.7834 3.85928 10.4604C3.85928 10.1374 3.99122 9.87665 4.25511 9.67821C4.9808 9.12404 5.7891 8.69179 6.67999 8.38146C7.57087 8.07112 8.51085 7.91622 9.4999 7.91675ZM9.4999 3.16675C11.1492 3.16675 12.703 3.43723 14.1612 3.97821C15.6195 4.51918 16.9289 5.28446 18.0895 6.27404C18.3534 6.49835 18.4919 6.77543 18.5051 7.10529C18.5183 7.43515 18.4062 7.71883 18.1687 7.95633C17.9443 8.18064 17.6673 8.29622 17.3374 8.30308C17.0075 8.30994 16.7107 8.20755 16.4468 7.99591C15.4968 7.21744 14.4315 6.61393 13.2508 6.18537C12.0702 5.75682 10.8199 5.54228 9.4999 5.54175C8.17993 5.54122 6.92989 5.75576 5.74978 6.18537C4.56967 6.61498 3.50408 7.2185 2.55303 7.99591C2.28914 8.20703 1.99226 8.30941 1.6624 8.30308C1.33254 8.29675 1.05546 8.18117 0.831152 7.95633C0.593652 7.71883 0.4815 7.43515 0.494694 7.10529C0.507888 6.77543 0.64643 6.49835 0.910319 6.27404C2.07143 5.28446 3.38111 4.51918 4.83936 3.97821C6.29761 3.43723 7.85112 3.16675 9.4999 3.16675Z" fill="#F8F8F8"/>
</svg>
