<svg width="17" height="18" viewBox="0 0 17 18" fill="none" xmlns="http://www.w3.org/2000/svg">
<path d="M8.49935 12.5417C8.70004 12.5417 8.86839 12.4737 9.00439 12.3377C9.14039 12.2017 9.20816 12.0335 9.20768 11.8333C9.20721 11.6331 9.13921 11.465 9.00368 11.329C8.86816 11.193 8.70004 11.125 8.49935 11.125C8.29866 11.125 8.13054 11.193 7.99502 11.329C7.85949 11.465 7.79149 11.6331 7.79102 11.8333C7.79054 12.0335 7.85854 12.2019 7.99502 12.3384C8.13149 12.4748 8.2996 12.5426 8.49935 12.5417ZM8.49935 9.70832C8.70004 9.70832 8.86839 9.64032 9.00439 9.50432C9.14039 9.36832 9.20816 9.20021 9.20768 8.99999V6.16666C9.20768 5.96596 9.13968 5.79785 9.00368 5.66232C8.86768 5.5268 8.69957 5.4588 8.49935 5.45832C8.29913 5.45785 8.13102 5.52585 7.99502 5.66232C7.85902 5.7988 7.79102 5.96691 7.79102 6.16666V8.99999C7.79102 9.20068 7.85902 9.36903 7.99502 9.50503C8.13102 9.64103 8.29913 9.7088 8.49935 9.70832ZM8.49935 16.0833C7.51949 16.0833 6.59866 15.8973 5.73685 15.5252C4.87504 15.153 4.12539 14.6485 3.48789 14.0114C2.85039 13.3744 2.34582 12.6248 1.97418 11.7625C1.60254 10.9002 1.41649 9.97938 1.41602 8.99999C1.41554 8.0206 1.6016 7.09977 1.97418 6.23749C2.34677 5.37521 2.85134 4.62556 3.48789 3.98853C4.12445 3.3515 4.8741 2.84693 5.73685 2.47482C6.5996 2.10271 7.52043 1.91666 8.49935 1.91666C9.47827 1.91666 10.3991 2.10271 11.2618 2.47482C12.1246 2.84693 12.8743 3.3515 13.5108 3.98853C14.1474 4.62556 14.6522 5.37521 15.0252 6.23749C15.3983 7.09977 15.5841 8.0206 15.5827 8.99999C15.5813 9.97938 15.3952 10.9002 15.0245 11.7625C14.6538 12.6248 14.1493 13.3744 13.5108 14.0114C12.8724 14.6485 12.1227 15.1533 11.2618 15.5259C10.401 15.8984 9.48015 16.0843 8.49935 16.0833ZM8.49935 14.6667C10.0813 14.6667 11.4212 14.1177 12.5191 13.0198C13.6171 11.9219 14.166 10.5819 14.166 8.99999C14.166 7.41805 13.6171 6.07811 12.5191 4.9802C11.4212 3.88228 10.0813 3.33332 8.49935 3.33332C6.91741 3.33332 5.57747 3.88228 4.47956 4.9802C3.38164 6.07811 2.83268 7.41805 2.83268 8.99999C2.83268 10.5819 3.38164 11.9219 4.47956 13.0198C5.57747 14.1177 6.91741 14.6667 8.49935 14.6667Z" fill="black"/>
</svg>
