<svg width="19" height="19" viewBox="0 0 19 19" fill="none" xmlns="http://www.w3.org/2000/svg">
<path d="M3.16667 16.625C2.94236 16.625 2.75447 16.549 2.603 16.397C2.45153 16.245 2.37553 16.0571 2.375 15.8333V15.0416C2.375 14.8173 2.451 14.6294 2.603 14.478C2.755 14.3265 2.94289 14.2505 3.16667 14.25C3.39044 14.2494 3.5786 14.3254 3.73112 14.478C3.88365 14.6305 3.95939 14.8184 3.95833 15.0416V15.8333C3.95833 16.0576 3.88233 16.2458 3.73033 16.3978C3.57833 16.5498 3.39044 16.6255 3.16667 16.625ZM6.33333 16.625C6.10903 16.625 5.92114 16.549 5.76967 16.397C5.61819 16.245 5.54219 16.0571 5.54167 15.8333V11.4791C5.54167 11.2548 5.61767 11.0669 5.76967 10.9155C5.92167 10.764 6.10956 10.688 6.33333 10.6875C6.55711 10.6869 6.74526 10.7629 6.89779 10.9155C7.05032 11.068 7.12606 11.2559 7.125 11.4791V15.8333C7.125 16.0576 7.049 16.2458 6.897 16.3978C6.745 16.5498 6.55711 16.6255 6.33333 16.625ZM9.5 16.625C9.27569 16.625 9.08781 16.549 8.93633 16.397C8.78486 16.245 8.70886 16.0571 8.70833 15.8333V13.0625C8.70833 12.8382 8.78433 12.6503 8.93633 12.4988C9.08833 12.3473 9.27622 12.2713 9.5 12.2708C9.72378 12.2703 9.91193 12.3463 10.0645 12.4988C10.217 12.6513 10.2927 12.8392 10.2917 13.0625V15.8333C10.2917 16.0576 10.2157 16.2458 10.0637 16.3978C9.91167 16.5498 9.72378 16.6255 9.5 16.625ZM12.6667 16.625C12.4424 16.625 12.2545 16.549 12.103 16.397C11.9515 16.245 11.8755 16.0571 11.875 15.8333V11.875C11.875 11.6507 11.951 11.4628 12.103 11.3113C12.255 11.1598 12.4429 11.0838 12.6667 11.0833C12.8904 11.0828 13.0786 11.1588 13.2311 11.3113C13.3837 11.4638 13.4594 11.6517 13.4583 11.875V15.8333C13.4583 16.0576 13.3823 16.2458 13.2303 16.3978C13.0783 16.5498 12.8904 16.6255 12.6667 16.625ZM15.8333 16.625C15.609 16.625 15.4211 16.549 15.2697 16.397C15.1182 16.245 15.0422 16.0571 15.0417 15.8333V8.7083C15.0417 8.48399 15.1177 8.2961 15.2697 8.14463C15.4217 7.99316 15.6096 7.91716 15.8333 7.91663C16.0571 7.9161 16.2453 7.9921 16.3978 8.14463C16.5503 8.29716 16.6261 8.48505 16.625 8.7083V15.8333C16.625 16.0576 16.549 16.2458 16.397 16.3978C16.245 16.5498 16.0571 16.6255 15.8333 16.625ZM11.0833 9.48017C10.8722 9.48017 10.6709 9.44059 10.4793 9.36142C10.2877 9.28226 10.113 9.1701 9.95521 9.02496L7.91667 6.98642L3.72083 11.1823C3.5625 11.3406 3.37461 11.4166 3.15717 11.4103C2.93972 11.4039 2.75157 11.3213 2.59271 11.1625C2.44757 11.0041 2.37843 10.8162 2.38529 10.5988C2.39215 10.3814 2.46789 10.1998 2.6125 10.0541L6.78854 5.87809C6.94688 5.71976 7.12183 5.60444 7.31342 5.53213C7.505 5.45982 7.70608 5.42341 7.91667 5.42288C8.12725 5.42235 8.33176 5.45877 8.53021 5.53213C8.72865 5.60549 8.90018 5.72081 9.04479 5.87809L11.0833 7.91663L15.2792 3.7208C15.4375 3.56246 15.6257 3.48646 15.8436 3.4928C16.0616 3.49913 16.2495 3.58173 16.4073 3.74059C16.5524 3.89892 16.6218 4.08707 16.6155 4.30505C16.6092 4.52302 16.5332 4.70431 16.3875 4.84892L12.2115 9.02496C12.0663 9.1701 11.8948 9.28226 11.6969 9.36142C11.499 9.44059 11.2944 9.48017 11.0833 9.48017Z" fill="#F8F8F8"/>
</svg>
