<svg width="19" height="19" viewBox="0 0 19 19" fill="none" xmlns="http://www.w3.org/2000/svg">
<path d="M9.49984 3.5625C5.5415 3.5625 2.16109 6.02458 0.791504 9.5C2.16109 12.9754 5.5415 15.4375 9.49984 15.4375C9.78484 15.4375 10.0698 15.4375 10.3548 15.3979C10.3138 15.1493 10.2926 14.8978 10.2915 14.6458C10.2915 14.2025 10.3548 13.7592 10.4815 13.3317C10.1569 13.4108 9.83234 13.4583 9.49984 13.4583C8.45002 13.4583 7.4432 13.0413 6.70087 12.299C5.95854 11.5566 5.5415 10.5498 5.5415 9.5C5.5415 8.45018 5.95854 7.44337 6.70087 6.70104C7.4432 5.9587 8.45002 5.54167 9.49984 5.54167C10.5497 5.54167 11.5565 5.9587 12.2988 6.70104C13.0411 7.44337 13.4582 8.45018 13.4582 9.5C13.4582 9.72958 13.4344 9.96708 13.3948 10.1967C13.9173 9.99875 14.4794 9.89583 15.0415 9.89583C15.9678 9.89583 16.8703 10.165 17.6461 10.6875C17.8598 10.2917 18.0498 9.89583 18.2082 9.5C16.8386 6.02458 13.4582 3.5625 9.49984 3.5625ZM9.49984 7.125C8.86995 7.125 8.26586 7.37522 7.82046 7.82062C7.37506 8.26602 7.12484 8.87011 7.12484 9.5C7.12484 10.1299 7.37506 10.734 7.82046 11.1794C8.26586 11.6248 8.86995 11.875 9.49984 11.875C10.1297 11.875 10.7338 11.6248 11.1792 11.1794C11.6246 10.734 11.8748 10.1299 11.8748 9.5C11.8748 8.87011 11.6246 8.26602 11.1792 7.82062C10.7338 7.37522 10.1297 7.125 9.49984 7.125ZM14.2498 11.4792V13.8542H11.8748V15.4375H14.2498V17.8125H15.8332V15.4375H18.2082V13.8542H15.8332V11.4792H14.2498Z" fill="#F8F8F8"/>
</svg>
