<svg width="17" height="17" viewBox="0 0 17 17" fill="none" xmlns="http://www.w3.org/2000/svg">
<path d="M1.98508 5.71553L4.77874 10.5542C5.218 11.3501 5.90092 11.9842 6.7272 12.3634C7.55348 12.7426 8.47957 12.8468 9.36945 12.6607L7.7077 15.5394C4.16887 15.1456 1.41699 12.1444 1.41699 8.49999C1.41699 7.51116 1.61958 6.57049 1.98508 5.71553ZM14.9943 5.66666C15.3837 6.56048 15.5843 7.52505 15.5837 8.49999C15.5837 12.1252 12.8601 15.1144 9.34749 15.5337L12.144 10.6887C12.5293 10.0498 12.7503 9.30041 12.7503 8.49999C12.7516 7.45433 12.3661 6.44513 11.668 5.66666H14.9943ZM8.50033 5.66666C9.25177 5.66666 9.97244 5.96517 10.5038 6.49652C11.0351 7.02787 11.3337 7.74854 11.3337 8.49999C11.3337 9.25144 11.0351 9.97211 10.5038 10.5035C9.97244 11.0348 9.25177 11.3333 8.50033 11.3333C7.74888 11.3333 7.02821 11.0348 6.49686 10.5035C5.9655 9.97211 5.66699 9.25144 5.66699 8.49999C5.66699 7.74854 5.9655 7.02787 6.49686 6.49652C7.02821 5.96517 7.74888 5.66666 8.50033 5.66666ZM8.50033 1.41666C9.60007 1.41611 10.6848 1.67189 11.6685 2.16372C12.6521 2.65554 13.5076 3.36986 14.167 4.24999H8.50033C7.60529 4.24977 6.73304 4.53212 6.00791 5.05679C5.28279 5.58146 4.74181 6.32166 4.46212 7.17187L2.80037 4.29391C3.4585 3.40118 4.31727 2.67564 5.30738 2.17585C6.29749 1.67606 7.39122 1.416 8.50033 1.41666Z" fill="black"/>
</svg>
