<svg width="17" height="17" viewBox="0 0 17 17" fill="none" xmlns="http://www.w3.org/2000/svg">
<path d="M8.49935 1.41666C12.4115 1.41666 15.5827 4.58786 15.5827 8.49999C15.5827 12.4121 12.4115 15.5833 8.49935 15.5833C4.58722 15.5833 1.41602 12.4121 1.41602 8.49999C1.41602 4.58786 4.58722 1.41666 8.49935 1.41666ZM8.49935 2.83332C6.99646 2.83332 5.55512 3.43035 4.49241 4.49305C3.4297 5.55576 2.83268 6.9971 2.83268 8.49999C2.83268 10.0029 3.4297 11.4442 4.49241 12.5069C5.55512 13.5696 6.99646 14.1667 8.49935 14.1667C10.0022 14.1667 11.4436 13.5696 12.5063 12.5069C13.569 11.4442 14.166 10.0029 14.166 8.49999C14.166 6.9971 13.569 5.55576 12.5063 4.49305C11.4436 3.43035 10.0022 2.83332 8.49935 2.83332ZM8.49935 4.24999C8.67284 4.25001 8.8403 4.31371 8.96995 4.429C9.0996 4.54428 9.18243 4.70315 9.20272 4.87545L9.20768 4.95832V8.20674L11.1251 10.1242C11.2522 10.2517 11.3259 10.4227 11.3314 10.6026C11.3369 10.7825 11.2737 10.9577 11.1547 11.0927C11.0357 11.2277 10.8698 11.3123 10.6906 11.3294C10.5114 11.3464 10.3325 11.2947 10.1901 11.1846L10.1236 11.1258L7.99856 9.00078C7.88847 8.8906 7.81776 8.7472 7.79739 8.59278L7.79102 8.49999V4.95832C7.79102 4.77046 7.86564 4.59029 7.99848 4.45746C8.13132 4.32462 8.31149 4.24999 8.49935 4.24999Z" fill="black"/>
</svg>
