<svg width="17" height="18" viewBox="0 0 17 18" fill="none" xmlns="http://www.w3.org/2000/svg">
<path d="M6.20971 3.31298C6.68312 1.92756 8.59737 1.8856 9.15867 3.1871L9.20617 3.31377L9.84504 5.1821C9.99145 5.61058 10.2281 6.00268 10.5389 6.33194C10.8497 6.6612 11.2275 6.91998 11.6469 7.09081L11.8187 7.15494L13.687 7.79302C15.0724 8.26644 15.1144 10.1807 13.8137 10.742L13.687 10.7895L11.8187 11.4284C11.39 11.5747 10.9978 11.8112 10.6684 12.1221C10.339 12.4329 10.0801 12.8108 9.90917 13.2302L9.84504 13.4012L9.20696 15.2703C8.73354 16.6557 6.81929 16.6977 6.25879 15.397L6.20971 15.2703L5.57162 13.402C5.42531 12.9734 5.18875 12.5811 4.87792 12.2517C4.56709 11.9223 4.18921 11.6634 3.76979 11.4925L3.59879 11.4284L1.73046 10.7903C0.344249 10.3169 0.30229 8.4026 1.60379 7.8421L1.73046 7.79302L3.59879 7.15494C4.02727 7.00852 4.41936 6.77193 4.74863 6.4611C5.07789 6.15027 5.33667 5.77244 5.5075 5.3531L5.57162 5.1821L6.20971 3.31298ZM7.70833 3.8244L7.07025 5.69273C6.84731 6.3461 6.48463 6.94301 6.00746 7.44191C5.5303 7.94082 4.95012 8.32971 4.30733 8.58152L4.10942 8.65356L2.24108 9.29165L4.10942 9.92973C4.76278 10.1527 5.3597 10.5154 5.8586 10.9925C6.3575 11.4697 6.7464 12.0499 6.99821 12.6926L7.07025 12.8906L7.70833 14.7589L8.34642 12.8906C8.56936 12.2372 8.93204 11.6403 9.4092 11.1414C9.88636 10.6425 10.4665 10.2536 11.1093 10.0018L11.3072 9.93052L13.1756 9.29165L11.3072 8.65356C10.6539 8.43062 10.057 8.06794 9.55807 7.59078C9.05916 7.11362 8.67027 6.53344 8.41846 5.89065L8.34721 5.69273L7.70833 3.8244ZM14.0417 0.583313C14.1898 0.583313 14.3349 0.624858 14.4606 0.703228C14.5862 0.781598 14.6874 0.893648 14.7526 1.02665L14.7906 1.11927L15.0677 1.93152L15.8807 2.2086C16.0291 2.25903 16.1592 2.35238 16.2546 2.47683C16.3499 2.60128 16.4061 2.75123 16.4161 2.90766C16.4261 3.0641 16.3894 3.21998 16.3108 3.35556C16.2321 3.49114 16.1149 3.60031 15.9741 3.66923L15.8807 3.70723L15.0685 3.98431L14.7914 4.79735C14.7409 4.94574 14.6474 5.07578 14.5229 5.17102C14.3984 5.26625 14.2485 5.32238 14.092 5.3323C13.9356 5.34222 13.7798 5.30548 13.6442 5.22674C13.5087 5.14799 13.3996 5.03079 13.3307 4.88998L13.2928 4.79735L13.0157 3.9851L12.2026 3.70802C12.0542 3.6576 11.9241 3.56424 11.8288 3.43979C11.7335 3.31534 11.6772 3.1654 11.6672 3.00896C11.6572 2.85253 11.6939 2.69664 11.7726 2.56107C11.8513 2.42549 11.9684 2.31632 12.1092 2.2474L12.2026 2.2094L13.0149 1.93231L13.292 1.11927C13.3453 0.962858 13.4463 0.827074 13.5808 0.730958C13.7152 0.634842 13.8764 0.583214 14.0417 0.583313Z" fill="#F8F8F8"/>
</svg>
