<svg width="19" height="19" viewBox="0 0 19 19" fill="none" xmlns="http://www.w3.org/2000/svg">
<path d="M15.8333 3.75722C15.8333 3.47132 15.777 3.18822 15.6676 2.92409C15.5582 2.65995 15.3978 2.41995 15.1957 2.21779C14.9935 2.01563 14.7535 1.85527 14.4894 1.74586C14.2252 1.63645 13.9421 1.58014 13.6562 1.58014H3.76042C3.18302 1.58014 2.62927 1.80951 2.22099 2.21779C1.8127 2.62607 1.58333 3.17982 1.58333 3.75722V13.6531C1.58333 14.2305 1.8127 14.7842 2.22099 15.1925C2.62927 15.6008 3.18302 15.8301 3.76042 15.8301H9.03767L9.12079 15.4976C9.19679 15.1936 9.32108 14.9055 9.48733 14.6426H3.76042C3.21417 14.6426 2.77083 14.1993 2.77083 13.6531V3.75722C2.77083 3.21097 3.21417 2.76764 3.76042 2.76764H13.6562C14.2025 2.76764 14.6458 3.21097 14.6458 3.75722V9.38835C14.9918 9.07168 15.4027 8.86585 15.8333 8.77006V3.75722ZM12.6667 11.3643V5.32631L12.6611 5.24714C12.6391 5.10746 12.5675 4.98038 12.4595 4.8891C12.3515 4.79782 12.2143 4.74843 12.0729 4.74997C11.996 4.74893 11.9196 4.76304 11.8481 4.79152C11.7766 4.82 11.7115 4.86228 11.6563 4.91595C11.6012 4.96961 11.5572 5.03361 11.5268 5.10429C11.4964 5.17498 11.4802 5.25095 11.4792 5.32789V12.0895L11.4847 12.1679C11.4982 12.2668 11.5377 12.3579 11.5971 12.4347L12.6667 11.3643ZM5.93196 6.84393C5.91209 6.70207 5.84162 6.57218 5.73352 6.47819C5.62542 6.38421 5.48699 6.33247 5.34375 6.33251C5.18669 6.33251 5.03602 6.39474 4.92474 6.50558C4.81346 6.61642 4.75063 6.76683 4.75 6.92389V12.0753L4.75554 12.1552C4.79512 12.4442 5.04292 12.6658 5.34375 12.6658C5.6715 12.6658 5.9375 12.4014 5.9375 12.0753V6.92389L5.93196 6.84393ZM9.26804 9.19676C9.24702 9.05876 9.17675 8.93302 9.07023 8.8428C8.96371 8.75257 8.82813 8.70396 8.68854 8.70593C8.53554 8.70698 8.3892 8.76865 8.28161 8.87743C8.17402 8.98621 8.11395 9.13322 8.11458 9.28622L8.14229 12.0943L8.14862 12.1726C8.16965 12.3106 8.23991 12.4364 8.34643 12.5266C8.45296 12.6168 8.58854 12.6654 8.72812 12.6635C8.88112 12.6624 9.02746 12.6007 9.13506 12.492C9.24265 12.3832 9.30271 12.2362 9.30208 12.0832L9.27437 9.27435L9.26804 9.19676ZM15.1208 10.0296L10.4476 14.702C10.1757 14.975 9.98256 15.3163 9.88871 15.69L9.52612 17.1388C9.4899 17.283 9.49169 17.4342 9.53132 17.5776C9.57095 17.721 9.64708 17.8517 9.75226 17.9568C9.85745 18.062 9.9881 18.1381 10.1315 18.1778C10.2749 18.2174 10.4261 18.2192 10.5703 18.183L12.0191 17.8204C12.3928 17.7265 12.7341 17.5334 13.0071 17.2615L17.6795 12.5883C18.0024 12.2457 18.1792 11.7908 18.1722 11.32C18.1652 10.8493 17.9751 10.3998 17.6421 10.067C17.3092 9.73416 16.8596 9.54416 16.3889 9.53732C15.9182 9.53049 15.4633 9.70736 15.1208 10.0304" fill="#F8F8F8"/>
</svg>
