<svg width="17" height="18" viewBox="0 0 17 18" fill="none" xmlns="http://www.w3.org/2000/svg">
<g clip-path="url(#clip0_73_537)">
<path d="M8.5 12.7187C9.06358 12.7187 9.60409 12.9426 10.0026 13.3411C10.4011 13.7397 10.625 14.2802 10.625 14.8437C10.625 15.4073 10.4011 15.9478 10.0026 16.3464C9.60409 16.7449 9.06358 16.9687 8.5 16.9687C7.93641 16.9687 7.39591 16.7449 6.9974 16.3464C6.59888 15.9478 6.375 15.4073 6.375 14.8437C6.375 14.2802 6.59888 13.7397 6.9974 13.3411C7.39591 12.9426 7.93641 12.7187 8.5 12.7187ZM8.5 12.7187V1.03125M6.90625 2.625L8.5 1.03125M8.5 1.03125L10.0937 2.625M12.75 6.34375V7.52737C12.75 7.95998 12.6179 8.38228 12.3715 8.73783C12.125 9.09337 11.776 9.36524 11.3709 9.51708L8.5 10.5937M11.6875 4.21875H13.8125V6.34375H11.6875V4.21875ZM3.1875 7.40625C3.1875 7.68804 3.29944 7.95829 3.4987 8.15755C3.69796 8.35681 3.96821 8.46875 4.25 8.46875C4.53179 8.46875 4.80204 8.35681 5.0013 8.15755C5.20056 7.95829 5.3125 7.68804 5.3125 7.40625C5.3125 7.12446 5.20056 6.85421 5.0013 6.65495C4.80204 6.45569 4.53179 6.34375 4.25 6.34375C3.96821 6.34375 3.69796 6.45569 3.4987 6.65495C3.29944 6.85421 3.1875 7.12446 3.1875 7.40625Z" stroke="black" stroke-width="1.0625" stroke-linecap="round" stroke-linejoin="round"/>
<path d="M4.25 8.46875V9.46608C4.25005 9.9399 4.40846 10.4001 4.70005 10.7736C4.99164 11.147 5.39968 11.4124 5.85933 11.5273L8.5 12.1875" stroke="black" stroke-width="1.0625" stroke-linecap="round" stroke-linejoin="round"/>
</g>
<defs>
<clipPath id="clip0_73_537">
<rect width="17" height="17" fill="white" transform="translate(0 0.5)"/>
</clipPath>
</defs>
</svg>
