<svg width="19" height="19" viewBox="0 0 19 19" fill="none" xmlns="http://www.w3.org/2000/svg">
<g clip-path="url(#clip0_449_58)">
<path fill-rule="evenodd" clip-rule="evenodd" d="M2.03571 0.552246C1.49581 0.552246 0.978017 0.766723 0.596247 1.14849C0.214476 1.53026 0 2.04806 0 2.58796L0 6.5576C0 7.09751 0.214476 7.6153 0.596247 7.99707C0.978017 8.37884 1.49581 8.59332 2.03571 8.59332H16.9643C17.5042 8.59332 18.022 8.37884 18.4038 7.99707C18.7855 7.6153 19 7.09751 19 6.5576V2.58796C19 2.04806 18.7855 1.53026 18.4038 1.14849C18.022 0.766723 17.5042 0.552246 16.9643 0.552246H2.03571ZM0 12.4422C0 11.9023 0.214476 11.3845 0.596247 11.0027C0.978017 10.6209 1.49581 10.4065 2.03571 10.4065H16.9643C17.5042 10.4065 18.022 10.6209 18.4038 11.0027C18.7855 11.3845 19 11.9023 19 12.4422V16.4118C19 16.9517 18.7855 17.4695 18.4038 17.8513C18.022 18.2331 17.5042 18.4475 16.9643 18.4475H2.03571C1.49581 18.4475 0.978017 18.2331 0.596247 17.8513C0.214476 17.4695 0 16.9517 0 16.4118L0 12.4422ZM2.77671 4.57346C2.77671 4.37296 2.81621 4.17442 2.89293 3.98918C2.96966 3.80395 3.08212 3.63563 3.2239 3.49386C3.36567 3.35208 3.53399 3.23962 3.71922 3.16289C3.90446 3.08617 4.103 3.04667 4.3035 3.04667C4.504 3.04667 4.70254 3.08617 4.88778 3.16289C5.07301 3.23962 5.24132 3.35208 5.3831 3.49386C5.52488 3.63563 5.63734 3.80395 5.71407 3.98918C5.79079 4.17442 5.83029 4.37296 5.83029 4.57346C5.83029 4.97839 5.66943 5.36673 5.3831 5.65306C5.09677 5.93939 4.70843 6.10025 4.3035 6.10025C3.89857 6.10025 3.51023 5.93939 3.2239 5.65306C2.93757 5.36673 2.77671 4.97839 2.77671 4.57346ZM2.77671 14.429C2.77671 14.2285 2.81621 14.03 2.89293 13.8448C2.96966 13.6595 3.08212 13.4912 3.2239 13.3494C3.36567 13.2077 3.53399 13.0952 3.71922 13.0185C3.90446 12.9417 4.103 12.9022 4.3035 12.9022C4.504 12.9022 4.70254 12.9417 4.88778 13.0185C5.07301 13.0952 5.24132 13.2077 5.3831 13.3494C5.52488 13.4912 5.63734 13.6595 5.71407 13.8448C5.79079 14.03 5.83029 14.2285 5.83029 14.429C5.83029 14.834 5.66943 15.2223 5.3831 15.5086C5.09677 15.795 4.70843 15.9558 4.3035 15.9558C3.89857 15.9558 3.51023 15.795 3.2239 15.5086C2.93757 15.2223 2.77671 14.834 2.77671 14.429ZM9.33036 4.57346C9.33036 4.10525 9.71036 3.72525 10.1786 3.72525H14.9286C15.1535 3.72525 15.3693 3.81461 15.5283 3.97368C15.6874 4.13275 15.7768 4.3485 15.7768 4.57346C15.7768 4.79842 15.6874 5.01417 15.5283 5.17324C15.3693 5.33231 15.1535 5.42167 14.9286 5.42167H10.1786C9.95361 5.42167 9.73786 5.33231 9.57879 5.17324C9.41972 5.01417 9.33036 4.79842 9.33036 4.57346ZM10.1786 13.5808C9.95361 13.5808 9.73786 13.6702 9.57879 13.8293C9.41972 13.9883 9.33036 14.2041 9.33036 14.429C9.33036 14.654 9.41972 14.8697 9.57879 15.0288C9.73786 15.1879 9.95361 15.2772 10.1786 15.2772H14.9286C15.1535 15.2772 15.3693 15.1879 15.5283 15.0288C15.6874 14.8697 15.7768 14.654 15.7768 14.429C15.7768 14.2041 15.6874 13.9883 15.5283 13.8293C15.3693 13.6702 15.1535 13.5808 14.9286 13.5808H10.1786Z" fill="#F8F8F8"/>
</g>
<defs>
<clipPath id="clip0_449_58">
<rect width="19" height="19" fill="white"/>
</clipPath>
</defs>
</svg>
