<svg width="19" height="19" viewBox="0 0 19 19" fill="none" xmlns="http://www.w3.org/2000/svg">
<path d="M9.5835 11.875C9.49691 12.0605 9.43197 12.2523 9.38867 12.4502C9.34538 12.6481 9.30518 12.8522 9.26807 13.0625H3.5625V11.875H9.5835ZM3.5625 15.4375V14.25H9.24951C9.28044 14.4541 9.32373 14.6551 9.37939 14.853C9.43506 15.0509 9.50618 15.2458 9.59277 15.4375H3.5625ZM2.375 17.8125H14.8901L16.0684 19H1.1875V0H11.5317L16.625 5.09326V10.3628C16.4456 10.202 16.257 10.0566 16.0591 9.92676C15.8612 9.79688 15.654 9.68245 15.4375 9.5835V5.9375H10.6875V1.1875H2.375V17.8125ZM11.875 2.03174V4.75H14.5933L11.875 2.03174ZM12.0977 9.5C11.4235 9.75358 10.8452 10.1494 10.3628 10.6875H3.5625V9.5H12.0977ZM3.5625 4.75H9.5V5.9375H3.5625V4.75ZM14.25 7.125V8.3125H3.5625V7.125H14.25ZM19 18.4062C19 18.5671 18.9412 18.7062 18.8237 18.8237C18.7062 18.9412 18.5671 19 18.4062 19C18.2454 19 18.1063 18.9412 17.9888 18.8237L15.2891 16.1333C15.0479 16.2941 14.7881 16.4147 14.5098 16.4951C14.2314 16.5755 13.9469 16.6188 13.6562 16.625C13.248 16.625 12.8646 16.5477 12.5059 16.3931C12.1471 16.2384 11.8317 16.0282 11.5596 15.7622C11.2874 15.4963 11.0741 15.1808 10.9194 14.8159C10.7648 14.451 10.6875 14.0645 10.6875 13.6562C10.6875 13.248 10.7648 12.8646 10.9194 12.5059C11.0741 12.1471 11.2843 11.8348 11.5503 11.5688C11.8162 11.3029 12.1317 11.0895 12.4966 10.9287C12.8615 10.7679 13.248 10.6875 13.6562 10.6875C14.0645 10.6875 14.4479 10.7648 14.8066 10.9194C15.1654 11.0741 15.4777 11.2874 15.7437 11.5596C16.0096 11.8317 16.223 12.1471 16.3838 12.5059C16.5446 12.8646 16.625 13.248 16.625 13.6562C16.625 13.9469 16.5848 14.2314 16.5044 14.5098C16.424 14.7881 16.3003 15.0479 16.1333 15.2891L18.8237 17.9888C18.9412 18.1063 19 18.2454 19 18.4062ZM11.875 13.6562C11.875 13.9036 11.9214 14.1356 12.0142 14.3521C12.1069 14.5685 12.2337 14.7572 12.3945 14.918C12.5553 15.0788 12.744 15.2056 12.9604 15.2983C13.1769 15.3911 13.4089 15.4375 13.6562 15.4375C13.9036 15.4375 14.1356 15.3911 14.3521 15.2983C14.5685 15.2056 14.7572 15.0788 14.918 14.918C15.0788 14.7572 15.2056 14.5685 15.2983 14.3521C15.3911 14.1356 15.4375 13.9036 15.4375 13.6562C15.4375 13.4089 15.3911 13.1769 15.2983 12.9604C15.2056 12.744 15.0788 12.5553 14.918 12.3945C14.7572 12.2337 14.5685 12.1069 14.3521 12.0142C14.1356 11.9214 13.9036 11.875 13.6562 11.875C13.4089 11.875 13.1769 11.9214 12.9604 12.0142C12.744 12.1069 12.5553 12.2337 12.3945 12.3945C12.2337 12.5553 12.1069 12.744 12.0142 12.9604C11.9214 13.1769 11.875 13.4089 11.875 13.6562Z" fill="#F8F8F8"/>
</svg>
