<svg width="19" height="19" viewBox="0 0 19 19" fill="none" xmlns="http://www.w3.org/2000/svg">
<path d="M5.54167 7.91665H7.91667V5.54165L5.14583 2.77082C6.03221 2.34749 7.02802 2.20937 7.99615 2.37548C8.96428 2.54158 9.8571 3.00374 10.5517 3.69831C11.2462 4.39289 11.7084 5.28571 11.8745 6.25384C12.0406 7.22197 11.9025 8.21778 11.4792 9.10415L16.2292 13.8542C16.5441 14.1691 16.721 14.5963 16.721 15.0417C16.721 15.4871 16.5441 15.9142 16.2292 16.2292C15.9142 16.5441 15.4871 16.721 15.0417 16.721C14.5963 16.721 14.1691 16.5441 13.8542 16.2292L9.10417 11.4792C8.21779 11.9025 7.22198 12.0406 6.25385 11.8745C5.28572 11.7084 4.3929 11.2462 3.69833 10.5517C3.00376 9.85709 2.5416 8.96426 2.37549 7.99613C2.20939 7.02801 2.34751 6.03219 2.77083 5.14582L5.54167 7.91665Z" stroke="#F8F8F8" stroke-width="1.58333" stroke-linecap="round" stroke-linejoin="round"/>
</svg>
