<svg width="12" height="12" viewBox="0 0 12 12" fill="none" xmlns="http://www.w3.org/2000/svg">
<path d="M5.99949 1.49997L5.99999 9.99997M5.18149 1.79547L1.12849 8.56247C1.04494 8.70716 1.00073 8.87121 1.00025 9.03829C0.99977 9.20538 1.04304 9.36967 1.12577 9.51484C1.20849 9.66001 1.32778 9.78099 1.47176 9.86575C1.61575 9.95051 1.77942 9.9961 1.94649 9.99797H10.0535C10.2205 9.99605 10.3841 9.95045 10.528 9.86572C10.6719 9.78098 10.7912 9.66006 10.8739 9.51497C10.9566 9.36987 10.9999 9.20566 10.9995 9.03865C10.999 8.87164 10.9549 8.70765 10.8715 8.56297L6.81849 1.79497C6.73322 1.65422 6.61309 1.53784 6.46972 1.45707C6.32634 1.3763 6.16456 1.33386 5.99999 1.33386C5.83543 1.33386 5.67365 1.3763 5.53027 1.45707C5.38689 1.53784 5.26677 1.65422 5.18149 1.79497V1.79547Z" stroke="#4DB5D8" stroke-linecap="round" stroke-linejoin="round"/>
</svg>
