<svg width="17" height="17" viewBox="0 0 17 17" fill="none" xmlns="http://www.w3.org/2000/svg">
<path d="M7.16479 15.4494C7.59404 15.8036 8.04171 16.1273 8.5 16.4432C8.95928 16.1315 9.40477 15.7999 9.83521 15.4494C10.5528 14.8603 11.228 14.2214 11.8561 13.5376C13.3039 11.9545 14.875 9.65952 14.875 7.08331C14.875 6.24614 14.7101 5.41716 14.3897 4.64371C14.0694 3.87026 13.5998 3.16748 13.0078 2.57551C12.4158 1.98353 11.7131 1.51395 10.9396 1.19358C10.1662 0.873207 9.33718 0.708313 8.5 0.708313C7.66282 0.708313 6.83384 0.873207 6.06039 1.19358C5.28694 1.51395 4.58417 1.98353 3.99219 2.57551C3.40022 3.16748 2.93064 3.87026 2.61027 4.64371C2.28989 5.41716 2.125 6.24614 2.125 7.08331C2.125 9.65952 3.69608 11.9538 5.14392 13.5376C5.77194 14.2217 6.44723 14.86 7.16479 15.4494ZM8.5 9.3854C7.88945 9.3854 7.30391 9.14286 6.87218 8.71113C6.44046 8.27941 6.19792 7.69386 6.19792 7.08331C6.19792 6.47276 6.44046 5.88722 6.87218 5.45549C7.30391 5.02377 7.88945 4.78123 8.5 4.78123C9.11055 4.78123 9.69609 5.02377 10.1278 5.45549C10.5595 5.88722 10.8021 6.47276 10.8021 7.08331C10.8021 7.69386 10.5595 8.27941 10.1278 8.71113C9.69609 9.14286 9.11055 9.3854 8.5 9.3854Z" fill="black"/>
</svg>
