<svg width="27" height="27" viewBox="0 0 27 27" fill="none" xmlns="http://www.w3.org/2000/svg">
<path d="M13.5 13.2188V13.7813M13.5 9V9.5625M13.5 17.4375V18M21.375 21.375C21.9717 21.375 22.544 21.1379 22.966 20.716C23.3879 20.294 23.625 19.7217 23.625 19.125V15.75C23.0283 15.75 22.456 15.5129 22.034 15.091C21.6121 14.669 21.375 14.0967 21.375 13.5C21.375 12.9033 21.6121 12.331 22.034 11.909C22.456 11.4871 23.0283 11.25 23.625 11.25V7.875C23.625 7.27826 23.3879 6.70597 22.966 6.28401C22.544 5.86205 21.9717 5.625 21.375 5.625H5.625C5.02826 5.625 4.45597 5.86205 4.03401 6.28401C3.61205 6.70597 3.375 7.27826 3.375 7.875V11.25C3.97174 11.25 4.54403 11.4871 4.96599 11.909C5.38795 12.331 5.625 12.9033 5.625 13.5C5.625 14.0967 5.38795 14.669 4.96599 15.091C4.54403 15.5129 3.97174 15.75 3.375 15.75V19.125C3.375 19.7217 3.61205 20.294 4.03401 20.716C4.45597 21.1379 5.02826 21.375 5.625 21.375H21.375Z" stroke="white" stroke-width="1.5" stroke-linecap="round" stroke-linejoin="round"/>
</svg>
