<svg width="19" height="19" viewBox="0 0 19 19" fill="none" xmlns="http://www.w3.org/2000/svg">
<path d="M15.7542 10.0225C15.6272 9.87805 15.5573 9.69232 15.5573 9.50002C15.5573 9.30772 15.6272 9.12199 15.7542 8.97752L16.7675 7.83752C16.8792 7.71296 16.9485 7.55624 16.9656 7.38984C16.9826 7.22343 16.9466 7.0559 16.8625 6.91127L15.2792 4.1721C15.196 4.02764 15.0693 3.91313 14.9172 3.8449C14.7651 3.77666 14.5953 3.75819 14.4321 3.7921L12.9438 4.09294C12.7544 4.13207 12.5572 4.10053 12.3895 4.00427C12.2218 3.90801 12.0951 3.75369 12.0333 3.57044L11.5504 2.12169C11.4973 1.96444 11.3961 1.82787 11.2612 1.73127C11.1262 1.63467 10.9643 1.58292 10.7983 1.58335H7.63167C7.45903 1.57434 7.28819 1.62209 7.14524 1.71929C7.00229 1.8165 6.89508 1.95783 6.84 2.12169L6.39667 3.57044C6.33492 3.75369 6.20823 3.90801 6.04051 4.00427C5.87278 4.10053 5.67563 4.13207 5.48625 4.09294L3.95833 3.7921C3.8036 3.77024 3.64586 3.79465 3.50498 3.86228C3.3641 3.9299 3.24639 4.0377 3.16667 4.1721L1.58333 6.91127C1.49717 7.05428 1.45843 7.22088 1.47265 7.38724C1.48686 7.5536 1.55332 7.7112 1.6625 7.83752L2.66792 8.97752C2.79484 9.12199 2.86483 9.30772 2.86483 9.50002C2.86483 9.69232 2.79484 9.87805 2.66792 10.0225L1.6625 11.1625C1.55332 11.2888 1.48686 11.4464 1.47265 11.6128C1.45843 11.7792 1.49717 11.9458 1.58333 12.0888L3.16667 14.8279C3.24987 14.9724 3.37655 15.0869 3.52866 15.1551C3.68076 15.2234 3.85053 15.2419 4.01375 15.2079L5.50208 14.9071C5.69146 14.868 5.88862 14.8995 6.05634 14.9958C6.22406 15.092 6.35075 15.2463 6.4125 15.4296L6.89542 16.8784C6.9505 17.0422 7.05771 17.1835 7.20066 17.2807C7.34361 17.378 7.51445 17.4257 7.68708 17.4167H10.8538C11.0197 17.4171 11.1816 17.3654 11.3166 17.2688C11.4515 17.1722 11.5527 17.0356 11.6058 16.8784L12.0888 15.4296C12.1505 15.2463 12.2772 15.092 12.4449 14.9958C12.6126 14.8995 12.8098 14.868 12.9992 14.9071L14.4875 15.2079C14.6507 15.2419 14.8205 15.2234 14.9726 15.1551C15.1247 15.0869 15.2514 14.9724 15.3346 14.8279L16.9179 12.0888C17.002 11.9441 17.0381 11.7766 17.021 11.6102C17.0039 11.4438 16.9346 11.2871 16.8229 11.1625L15.7542 10.0225ZM14.5746 11.0834L15.2079 11.7959L14.1946 13.5534L13.2604 13.3634C12.6902 13.2468 12.0971 13.3437 11.5936 13.6355C11.0902 13.9274 10.7114 14.394 10.5292 14.9467L10.2283 15.8334H8.20167L7.91667 14.9309C7.73447 14.3781 7.35568 13.9116 6.8522 13.6197C6.34871 13.3278 5.75559 13.231 5.18542 13.3475L4.25125 13.5375L3.22208 11.7879L3.85542 11.0754C4.24488 10.64 4.4602 10.0763 4.4602 9.4921C4.4602 8.90791 4.24488 8.3442 3.85542 7.90877L3.22208 7.19627L4.23542 5.4546L5.16958 5.6446C5.73976 5.76115 6.33288 5.6643 6.83636 5.37243C7.33984 5.08055 7.71864 4.61398 7.90083 4.06127L8.20167 3.16669H10.2283L10.5292 4.06919C10.7114 4.62189 11.0902 5.08847 11.5936 5.38034C12.0971 5.67222 12.6902 5.76907 13.2604 5.65252L14.1946 5.46252L15.2079 7.22002L14.5746 7.93252C14.1895 8.36695 13.9769 8.92739 13.9769 9.50794C13.9769 10.0885 14.1895 10.6489 14.5746 11.0834ZM9.215 6.33335C8.58869 6.33335 7.97645 6.51907 7.45569 6.86703C6.93494 7.21499 6.52906 7.70956 6.28938 8.28819C6.0497 8.86682 5.98699 9.50353 6.10918 10.1178C6.23137 10.7321 6.53296 11.2963 6.97583 11.7392C7.4187 12.1821 7.98294 12.4837 8.59721 12.6058C9.21149 12.728 9.8482 12.6653 10.4268 12.4256C11.0055 12.186 11.5 11.7801 11.848 11.2593C12.1959 10.7386 12.3817 10.1263 12.3817 9.50002C12.3817 8.66017 12.048 7.85471 11.4542 7.26085C10.8603 6.66698 10.0549 6.33335 9.215 6.33335ZM9.215 11.0834C8.90185 11.0834 8.59573 10.9905 8.33535 10.8165C8.07497 10.6425 7.87203 10.3953 7.75219 10.1059C7.63235 9.81662 7.601 9.49826 7.66209 9.19113C7.72318 8.88399 7.87398 8.60187 8.09541 8.38043C8.31685 8.159 8.59897 8.0082 8.90611 7.94711C9.21324 7.88602 9.5316 7.91737 9.82092 8.03721C10.1102 8.15705 10.3575 8.35999 10.5315 8.62037C10.7055 8.88074 10.7983 9.18687 10.7983 9.50002C10.7983 9.91994 10.6315 10.3227 10.3346 10.6196C10.0377 10.9165 9.63493 11.0834 9.215 11.0834Z" fill="#F8F8F8"/>
</svg>
