<svg width="19" height="19" viewBox="0 0 19 19" fill="none" xmlns="http://www.w3.org/2000/svg">
<path d="M15.0417 3.16668H13.4583V2.37501C13.4583 2.16505 13.3749 1.96368 13.2265 1.81522C13.078 1.66675 12.8766 1.58334 12.6667 1.58334C12.4567 1.58334 12.2553 1.66675 12.1069 1.81522C11.9584 1.96368 11.875 2.16505 11.875 2.37501V3.16668H7.125V2.37501C7.125 2.16505 7.04159 1.96368 6.89313 1.81522C6.74466 1.66675 6.5433 1.58334 6.33333 1.58334C6.12337 1.58334 5.92201 1.66675 5.77354 1.81522C5.62507 1.96368 5.54167 2.16505 5.54167 2.37501V3.16668H3.95833C3.32844 3.16668 2.72435 3.4169 2.27895 3.8623C1.83355 4.3077 1.58333 4.91179 1.58333 5.54168V15.0417C1.58333 15.6716 1.83355 16.2757 2.27895 16.7211C2.72435 17.1665 3.32844 17.4167 3.95833 17.4167H15.0417C15.6716 17.4167 16.2756 17.1665 16.721 16.7211C17.1664 16.2757 17.4167 15.6716 17.4167 15.0417V5.54168C17.4167 4.91179 17.1664 4.3077 16.721 3.8623C16.2756 3.4169 15.6716 3.16668 15.0417 3.16668ZM15.8333 15.0417C15.8333 15.2516 15.7499 15.453 15.6015 15.6015C15.453 15.7499 15.2516 15.8333 15.0417 15.8333H3.95833C3.74837 15.8333 3.54701 15.7499 3.39854 15.6015C3.25007 15.453 3.16667 15.2516 3.16667 15.0417V9.50001H15.8333V15.0417ZM15.8333 7.91668H3.16667V5.54168C3.16667 5.33171 3.25007 5.13035 3.39854 4.98188C3.54701 4.83342 3.74837 4.75001 3.95833 4.75001H5.54167V5.54168C5.54167 5.75164 5.62507 5.953 5.77354 6.10147C5.92201 6.24994 6.12337 6.33334 6.33333 6.33334C6.5433 6.33334 6.74466 6.24994 6.89313 6.10147C7.04159 5.953 7.125 5.75164 7.125 5.54168V4.75001H11.875V5.54168C11.875 5.75164 11.9584 5.953 12.1069 6.10147C12.2553 6.24994 12.4567 6.33334 12.6667 6.33334C12.8766 6.33334 13.078 6.24994 13.2265 6.10147C13.3749 5.953 13.4583 5.75164 13.4583 5.54168V4.75001H15.0417C15.2516 4.75001 15.453 4.83342 15.6015 4.98188C15.7499 5.13035 15.8333 5.33171 15.8333 5.54168V7.91668Z" fill="#F8F8F8"/>
</svg>
