<svg width="25" height="16" viewBox="0 0 25 16" fill="none" xmlns="http://www.w3.org/2000/svg">
<path d="M24.1014 0.90625V7.65625C24.1014 7.82408 24.0347 7.98504 23.9161 8.10372C23.7974 8.22239 23.6364 8.28906 23.4686 8.28906C23.3008 8.28906 23.1398 8.22239 23.0211 8.10372C22.9024 7.98504 22.8358 7.82408 22.8358 7.65625V2.43344L13.7908 11.4784C13.6721 11.5969 13.5113 11.6635 13.3436 11.6635C13.1759 11.6635 13.0151 11.5969 12.8964 11.4784L9.12484 7.70793L1.97828 14.8534C1.85832 14.9652 1.69965 15.0261 1.53571 15.0232C1.37177 15.0203 1.21535 14.9539 1.09941 14.8379C0.983467 14.722 0.917054 14.5656 0.914161 14.4016C0.911269 14.2377 0.972122 14.079 1.0839 13.9591L8.67765 6.36531C8.7963 6.24681 8.95714 6.18024 9.12484 6.18024C9.29253 6.18024 9.45337 6.24681 9.57203 6.36531L13.3436 10.1358L21.9414 1.53906H16.7186C16.5508 1.53906 16.3898 1.47239 16.2711 1.35372C16.1524 1.23504 16.0858 1.07408 16.0858 0.90625C16.0858 0.738418 16.1524 0.577459 16.2711 0.458784C16.3898 0.340109 16.5508 0.273438 16.7186 0.273438H23.4686C23.6364 0.273438 23.7974 0.340109 23.9161 0.458784C24.0347 0.577459 24.1014 0.738418 24.1014 0.90625Z" fill="white"/>
</svg>
