<svg width="105" height="27" viewBox="0 0 105 27" fill="none" xmlns="http://www.w3.org/2000/svg">
<rect width="105" height="26.3721" rx="2" fill="#F6FBFE"/>
<rect x="0.25" y="0.25" width="104.5" height="25.8721" rx="1.75" stroke="black" stroke-opacity="0.1" stroke-width="0.5"/>
<path d="M0.244202 6.5929C4.04993 6.59291 8.60728 20.6091 13.1741 16.2964C13.597 15.3979 15.077 14.1401 17.6142 16.2964C18.2485 16.6558 19.7707 16.9433 20.7856 15.2182C21.6313 14.4995 23.7033 13.7088 25.2256 16.2964C26.2828 18.2731 28.7776 20.8247 30.2999 15.2182C30.9342 12.7025 33.2176 9.18049 37.2771 15.2182C38.3342 17.3746 40.956 20.8247 42.9857 17.3746C43.8314 15.5776 46.0303 12.9541 48.06 16.8355C49.1171 19.1715 51.612 22.3342 53.1343 16.2964C54.1914 12.1634 57.0669 5.29908 60.1115 10.9056C60.9572 12.8822 63.4098 15.4339 66.4543 9.82739C67.3001 8.03044 69.4989 5.73035 71.5286 10.9056C72.3744 13.4213 74.8269 17.4824 77.8715 13.601C78.5058 12.7025 80.2818 11.7681 82.3115 15.2182C84.2144 17.9137 86.2441 16.8355 86.7516 12.5228C86.9419 10.9056 88.0201 6.5929 91.1916 13.0619C91.6144 14.1401 94.9973 15.7573 98.803 15.2183C101.932 14.7751 102.219 15.7884 104.756 15.7884" stroke="#45CA88" stroke-linejoin="round"/>
</svg>
